<svg width="50" height="98" viewBox="0 0 50 98" xmlns="http://www.w3.org/2000/svg">
<g fill-rule="nonzero" fill="none">
  <path d="M40.094 65.932c3.115-16.265 4.117-34.58-3.607-50.897 0 0-7.556-15.034-11.487-15.034-3.93 0-11.489 15.034-11.489 15.034-7.722 16.316-6.723 34.632-3.606 50.897C8.25 68.22.832 76.412.832 76.412L2.189 98h4.43l3.425-14.012 3.729-1.609c.422 1.574.835 3.089 1.244 4.569h19.965c.407-1.48.823-2.997 1.244-4.569l3.729 1.609L43.38 98h4.431l1.357-21.588s-7.421-8.192-9.074-10.48z" fill="#000"/>
</g>
</svg>